<mxfile host="app.diagrams.net" modified="2022-08-31T04:04:06.814Z" agent="5.0 (Windows NT 10.0; Win64; x64) AppleWebKit/537.36 (KHTML, like Gecko) Chrome/104.0.0.0 Safari/537.36" etag="iWKC10sflEQNx_F-zpiW" version="20.2.7" type="github">
  <diagram id="C5RBs43oDa-KdzZeNtuy" name="Page-1">
    <mxGraphModel dx="780" dy="1152" grid="1" gridSize="10" guides="1" tooltips="1" connect="1" arrows="1" fold="1" page="1" pageScale="1" pageWidth="827" pageHeight="1169" math="0" shadow="0">
      <root>
        <mxCell id="WIyWlLk6GJQsqaUBKTNV-0" />
        <mxCell id="WIyWlLk6GJQsqaUBKTNV-1" parent="WIyWlLk6GJQsqaUBKTNV-0" />
        <mxCell id="nFEZBQJkIDiMsxM2TDyD-0" value="Payment Service" style="swimlane;" vertex="1" parent="WIyWlLk6GJQsqaUBKTNV-1">
          <mxGeometry x="70" y="270" width="200" height="200" as="geometry" />
        </mxCell>
        <mxCell id="nFEZBQJkIDiMsxM2TDyD-1" value="MerchantClient &lt;interface&gt;" style="swimlane;" vertex="1" parent="WIyWlLk6GJQsqaUBKTNV-1">
          <mxGeometry x="350" y="180" width="420" height="210" as="geometry" />
        </mxCell>
        <mxCell id="nFEZBQJkIDiMsxM2TDyD-4" value="&lt;h1&gt;boolean supports(Payment)&lt;/h1&gt;" style="text;html=1;strokeColor=none;fillColor=none;spacing=5;spacingTop=-20;whiteSpace=wrap;overflow=hidden;rounded=0;" vertex="1" parent="nFEZBQJkIDiMsxM2TDyD-1">
          <mxGeometry x="20" y="50" width="400" height="120" as="geometry" />
        </mxCell>
        <mxCell id="nFEZBQJkIDiMsxM2TDyD-5" value="&lt;h1&gt;perform(Payment)&lt;/h1&gt;" style="text;html=1;strokeColor=none;fillColor=none;spacing=5;spacingTop=-20;whiteSpace=wrap;overflow=hidden;rounded=0;" vertex="1" parent="nFEZBQJkIDiMsxM2TDyD-1">
          <mxGeometry x="10" y="90" width="260" height="120" as="geometry" />
        </mxCell>
        <mxCell id="nFEZBQJkIDiMsxM2TDyD-2" value="" style="endArrow=classic;html=1;rounded=0;" edge="1" parent="WIyWlLk6GJQsqaUBKTNV-1">
          <mxGeometry width="50" height="50" relative="1" as="geometry">
            <mxPoint x="270" y="410" as="sourcePoint" />
            <mxPoint x="350" y="240" as="targetPoint" />
          </mxGeometry>
        </mxCell>
        <mxCell id="nFEZBQJkIDiMsxM2TDyD-3" value="list of" style="edgeLabel;html=1;align=center;verticalAlign=middle;resizable=0;points=[];" vertex="1" connectable="0" parent="nFEZBQJkIDiMsxM2TDyD-2">
          <mxGeometry x="0.1605" y="1" relative="1" as="geometry">
            <mxPoint as="offset" />
          </mxGeometry>
        </mxCell>
        <mxCell id="nFEZBQJkIDiMsxM2TDyD-6" value="RESTMerchantAClient" style="swimlane;" vertex="1" parent="WIyWlLk6GJQsqaUBKTNV-1">
          <mxGeometry x="270" y="660" width="240" height="260" as="geometry" />
        </mxCell>
        <mxCell id="nFEZBQJkIDiMsxM2TDyD-11" value="" style="endArrow=classic;html=1;rounded=0;" edge="1" parent="nFEZBQJkIDiMsxM2TDyD-6">
          <mxGeometry width="50" height="50" relative="1" as="geometry">
            <mxPoint x="120" y="160" as="sourcePoint" />
            <mxPoint x="300" y="360" as="targetPoint" />
          </mxGeometry>
        </mxCell>
        <mxCell id="nFEZBQJkIDiMsxM2TDyD-7" value="" style="endArrow=classic;html=1;rounded=0;" edge="1" parent="WIyWlLk6GJQsqaUBKTNV-1" target="nFEZBQJkIDiMsxM2TDyD-5">
          <mxGeometry width="50" height="50" relative="1" as="geometry">
            <mxPoint x="340" y="700" as="sourcePoint" />
            <mxPoint x="390" y="650" as="targetPoint" />
          </mxGeometry>
        </mxCell>
        <mxCell id="nFEZBQJkIDiMsxM2TDyD-8" value="MerchantBClient" style="swimlane;" vertex="1" parent="WIyWlLk6GJQsqaUBKTNV-1">
          <mxGeometry x="520" y="650" width="200" height="200" as="geometry" />
        </mxCell>
        <mxCell id="nFEZBQJkIDiMsxM2TDyD-9" value="" style="endArrow=classic;html=1;rounded=0;" edge="1" parent="WIyWlLk6GJQsqaUBKTNV-1">
          <mxGeometry width="50" height="50" relative="1" as="geometry">
            <mxPoint x="610" y="690" as="sourcePoint" />
            <mxPoint x="475.6756756756756" y="400" as="targetPoint" />
          </mxGeometry>
        </mxCell>
        <mxCell id="nFEZBQJkIDiMsxM2TDyD-10" value="UserDAO" style="swimlane;" vertex="1" parent="WIyWlLk6GJQsqaUBKTNV-1">
          <mxGeometry x="520" y="960" width="200" height="200" as="geometry" />
        </mxCell>
        <mxCell id="nFEZBQJkIDiMsxM2TDyD-12" value="User findUserById(customer)" style="text;html=1;strokeColor=none;fillColor=none;align=center;verticalAlign=middle;whiteSpace=wrap;rounded=0;" vertex="1" parent="nFEZBQJkIDiMsxM2TDyD-10">
          <mxGeometry x="80" y="80" width="60" height="30" as="geometry" />
        </mxCell>
      </root>
    </mxGraphModel>
  </diagram>
</mxfile>
